<?xml version="1.0" encoding="utf-8"?>
<!-- Generator: Adobe Illustrator 18.0.0, SVG Export Plug-In . SVG Version: 6.00 Build 0)  -->
<!DOCTYPE svg PUBLIC "-//W3C//DTD SVG 1.1//EN" "http://www.w3.org/Graphics/SVG/1.1/DTD/svg11.dtd">
<svg version="1.1" id="Layer_1" xmlns="http://www.w3.org/2000/svg" xmlns:xlink="http://www.w3.org/1999/xlink" x="0px" y="0px"
	 viewBox="-150 46 113 208" enable-background="new -150 46 113 208" xml:space="preserve">
<g id="ICON">
	<g>
		<path d="M-52.2,124.2c-2.3,2.3-5,4.1-8.2,5.3c-3.1,1.2-6.4,2.3-9.8,3.2c-3.4,0.9-6.8,1.8-10.1,2.8c-3.4,1-6.4,2.3-9.1,4.1
			c-3.4,2.2-6,5.1-7.8,8.5c-1.8,3.4-3.1,7-4,10.8s-1.5,7.7-1.7,11.7c-0.3,3.9-0.6,7.5-0.9,10.8c-0.1,1-0.2,2.9-0.3,5.7
			s-0.2,5.9-0.3,9.5s-0.2,7.4-0.3,11.5c-0.1,4.1-0.2,7.9-0.3,11.6c-0.1,3.7-0.2,6.9-0.3,9.7c-0.1,2.8-0.2,4.8-0.3,6
			c-0.1,0.8-0.1,1.7-0.2,2.9c-0.1,1.2-0.2,2.3-0.4,3.4c-0.2,1.1-0.4,2-0.7,2.8c-0.3,0.8-0.6,1.2-1,1.2c-0.5,0-0.8-0.5-1.2-1.5
			c-0.4-1-0.7-2.2-0.9-3.4c-0.2-1.3-0.4-2.5-0.5-3.7c-0.1-1.2-0.2-1.9-0.2-2.3c-0.1-1.3-0.2-3.3-0.3-6s-0.2-5.7-0.3-8.9
			c-0.1-3.3-0.2-6.7-0.2-10.2c-0.1-3.5-0.1-6.8-0.1-9.6c0-2.9-0.1-5.4-0.1-7.4c0-2,0-3.1,0-3.3c0-4.9,0.2-9.9,0.7-15.1
			c0.5-5.2,1.3-10.3,2.5-15.4c1.2-5.1,2.8-9.9,4.7-14.7c2-4.7,4.5-9,7.4-13c3-3.9,6.5-7.4,10.7-10.2c4.1-2.9,8.9-5.1,14.5-6.5
			c-0.8-0.1-1.4-0.3-1.9-0.6s-0.7-0.8-0.7-1.6c0-0.5,0.1-1.2,0.4-2c0.3-0.8,0.5-1.4,0.6-1.8c0.2-0.6,0.6-1.5,1.3-2.9
			c0.7-1.4,1.4-2.9,2.2-4.7c0.8-1.7,1.7-3.5,2.7-5.3c1-1.8,1.9-3.4,2.7-4.7c0.3-0.5,0.6-0.9,0.9-1.1c0.3-0.2,0.9-0.3,1.9-0.3
			c2.1,0,4.4,0.5,6.7,1.5c2.4,1,4.6,2.3,6.6,4c2,1.7,3.7,3.5,5,5.7c1.3,2.1,2,4.3,2,6.6c0,0.6-0.5,1.7-1.4,3.3s-2,3.3-3.2,5.1
			s-2.5,3.5-3.7,5.1C-50.7,122.5-51.7,123.6-52.2,124.2z"/>
	</g>
	<g>
		<g>
			<path d="M-146.1,67.2c1.9-2.4,4-4.9,6.1-7.5c2.1-2.6,4.1-4.8,5.7-6.8c0.3-0.3,0.6-0.5,0.8-0.5c0.3,0,0.7,0.2,1.4,0.7
				c1.7,1.2,3.5,2.5,5.5,3.9c2,1.5,3.9,2.9,5.8,4.3c0.3,0.3,0.6,0.6,0.9,0.8c0.3,0.2,0.4,0.4,0.4,0.7c0,0.2-0.2,0.6-0.6,1.1
				l-11.6,14c-0.1,0.2-0.3,0.4-0.5,0.6s-0.4,0.3-0.5,0.3c-0.3,0-0.7-0.2-1.2-0.5c-1.8-1.2-3.7-2.6-5.8-4.2c-2-1.6-4-3.2-5.9-4.9
				c-0.7-0.5-1-0.9-1-1.2c0-0.1,0.1-0.3,0.2-0.4C-146.4,67.5-146.3,67.4-146.1,67.2z M-81.4,95.3c0,0.2-0.2,0.6-0.6,1.2
				s-0.9,1.2-1.5,2c-0.6,0.7-1.2,1.4-1.7,2.2c-0.6,0.7-1,1.3-1.3,1.6c-0.8,1-1.5,1.8-2.3,2.4c-0.8,0.7-1.5,1.2-2.4,1.8
				c-0.8,0.6-1.6,1.1-2.6,1.6c-0.9,0.5-1.8,1.1-2.8,1.8c-4.9,3.1-9.7,6.6-14.4,10.7s-8.8,8.5-12.3,13.3c-3.6,4.8-6.5,10.1-8.6,15.6
				c-2.1,5.6-3.2,11.5-3.2,17.7c0,4.2,0.6,7.9,1.7,11.3s3,6.2,5.4,8.6c2.5,2.4,5.6,4.2,9.5,5.5c3.8,1.3,8.5,2,13.8,2
				c6,0,11.5-0.9,16.4-2.7c4.9-1.8,9.5-4.4,13.6-7.7c4.1-3.3,7.9-7.4,11.4-12.2c3.4-4.8,6.7-10.1,9.8-16c1.4-2.6,2.3-3.8,2.9-3.8
				c0.5,0,0.7,0.7,0.7,1.9c0,2.7-0.7,6.2-1.9,10.4c-1.3,4.2-3.1,8.6-5.6,13.3s-5.4,9.3-9,14c-3.5,4.7-7.6,8.9-12.1,12.7
				s-9.5,6.8-14.9,9.1c-5.4,2.3-11.2,3.5-17.4,3.5c-6.3,0-11.7-1.1-16-3.4c-4.4-2.3-7.8-5.3-10.5-9c-2.6-3.7-4.5-8-5.7-12.9
				c-1.2-4.8-1.7-9.8-1.7-14.9c0-6,0.8-11.9,2.3-17.6c1.5-5.7,3.6-11.4,6.2-17c0.7-1.4,1.6-3.1,2.8-5.2c1.3-2.1,3.1-4.9,5.5-8.4
				c-1.2-0.4-2.5-0.9-3.9-1.5c-1.4-0.6-2.7-1.4-3.9-2.3c-1.2-0.9-2.2-2-3-3.2c-0.8-1.2-1.2-2.6-1.2-4.1c0-0.4,0.5-1.4,1.4-2.9
				c0.9-1.6,2.1-3.4,3.4-5.5c1.4-2.1,2.9-4.4,4.5-6.8c1.6-2.4,3.2-4.6,4.6-6.6c1.4-2,2.6-3.7,3.6-5.1c1-1.4,1.5-2.1,1.7-2.3
				c1.6-1.7,3.4-3.3,5.2-4.7c1.9-1.4,4.1-2.1,6.6-2.1c1.2,0,2.3,0.1,3.4,0.4s2.1,0.7,3.1,1.4c0.9,0.7,1.7,1.4,2.3,2.4
				c0.6,1,0.9,2.1,0.9,3.4c0,1.9-0.7,3.3-2.2,4.2c-1.4,0.9-3,1.4-4.7,1.4c-0.4,0-0.9-0.1-1.6-0.2c-0.7-0.2-1.4-0.3-2.2-0.5
				c-0.8-0.2-1.5-0.4-2.3-0.5s-1.3-0.2-1.7-0.2c-1.7,0-3.2,0.2-4.5,0.7c-1.3,0.5-2.3,1.1-3.1,1.7c-0.8,0.7-1.4,1.4-1.7,2.1
				c-0.4,0.7-0.5,1.3-0.5,1.8c0,0.5,0.5,1.2,1.4,2c0.9,0.8,2.1,1.7,3.6,2.5c1.5,0.8,3.2,1.5,5.2,2.2c2,0.6,4,0.9,6.2,0.9
				c0.3,0,0.8,0,1.6,0s1.2,0,1.4-0.1c1.1-0.5,2.5-1.1,4.2-2c1.7-0.9,3.6-1.9,5.6-3c2-1.1,4-2.3,6-3.4c2-1.2,3.9-2.2,5.5-3.2
				c0.1-0.1,0.3-0.2,0.5-0.3c0.2-0.1,0.4-0.2,0.6-0.2C-81.5,95.1-81.4,95.2-81.4,95.3z"/>
		</g>
	</g>
</g>
</svg>
